<svg width="16" height="16" viewBox="0 0 16 16" fill="none" xmlns="http://www.w3.org/2000/svg">
<path d="M4.66671 2C3.95947 2 3.28119 2.28095 2.78109 2.78105C2.281 3.28115 2.00005 3.95942 2.00005 4.66667C2.00005 5.37391 2.281 6.05219 2.78109 6.55229C3.28119 7.05238 3.95947 7.33333 4.66671 7.33333C5.37396 7.33333 6.05223 7.05238 6.55233 6.55229C7.05243 6.05219 7.33338 5.37391 7.33338 4.66667C7.33338 3.95942 7.05243 3.28115 6.55233 2.78105C6.05223 2.28095 5.37396 2 4.66671 2ZM10 2C9.26338 2 8.66671 2.59667 8.66671 3.33333V6C8.66671 6.73667 9.26338 7.33333 10 7.33333H12.6667C13.4034 7.33333 14 6.73667 14 6V3.33333C14 2.59667 13.4034 2 12.6667 2H10ZM11.0183 8.48958C10.8714 8.48533 10.7272 8.52973 10.6081 8.61589L8.4115 10.2122C8.29773 10.295 8.21303 10.4116 8.16953 10.5453C8.12603 10.6791 8.12595 10.8232 8.16932 10.957L9.00916 13.5391C9.05263 13.673 9.1374 13.7898 9.25132 13.8726C9.36523 13.9554 9.50244 14 9.64328 14H12.3568C12.4976 14 12.6349 13.9554 12.7488 13.8726C12.8627 13.7898 12.9475 13.673 12.9909 13.5391L13.8308 10.957C13.8741 10.8232 13.8741 10.6791 13.8306 10.5453C13.7871 10.4116 13.7024 10.295 13.5886 10.2122L11.392 8.61589C11.283 8.53706 11.1527 8.49303 11.0183 8.48958ZM4.67192 8.66667C4.54722 8.66569 4.42475 8.6997 4.31841 8.76483C4.21207 8.82997 4.12614 8.92362 4.07036 9.03516L2.07036 13.0352C2.01955 13.1368 1.99556 13.2498 2.00068 13.3633C2.00579 13.4768 2.03984 13.5871 2.09959 13.6838C2.15934 13.7805 2.2428 13.8603 2.34206 13.9156C2.44132 13.9709 2.55307 14 2.66671 14H6.66671C6.78035 14 6.89211 13.9709 6.99137 13.9156C7.09062 13.8603 7.17409 13.7805 7.23384 13.6838C7.29358 13.5871 7.32763 13.4768 7.33275 13.3633C7.33786 13.2498 7.31388 13.1368 7.26307 13.0352L5.26307 9.03516C5.20808 8.92521 5.12377 8.8326 5.01944 8.76757C4.91512 8.70254 4.79485 8.66762 4.67192 8.66667Z" fill="#FFFFFF"/>
</svg>
