<svg width="46" height="42" viewBox="0 0 46 42" fill="none" xmlns="http://www.w3.org/2000/svg">
<path d="M17.1177 2.80399L17.1178 2.80403C17.9354 3.17111 18.5722 3.59772 18.9829 4.03552C19.3945 4.47431 19.579 4.8896 19.579 5.3C19.579 5.71039 19.3945 6.12569 18.9829 6.56448C18.5722 7.00228 17.9354 7.42889 17.1178 7.79597L17.1177 7.79601C15.4833 8.5317 13.1633 9.015 10.584 9.015C8.00474 9.015 5.68478 8.5317 4.05034 7.79601L4.05023 7.79597C3.23264 7.42889 2.59586 7.00228 2.1852 6.56448C1.77361 6.12569 1.58903 5.71039 1.58903 5.3C1.58903 4.8896 1.77361 4.47431 2.1852 4.03552C2.59586 3.59772 3.23264 3.17111 4.05023 2.80403L4.05034 2.80399C5.68478 2.0683 8.00474 1.585 10.584 1.585C13.1633 1.585 15.4833 2.0683 17.1177 2.80399ZM17.6253 8.90899C18.3974 8.56196 19.0565 8.15326 19.579 7.67867V10.025V10.0251V10.0252V10.0253V10.0254V10.0254V10.0255V10.0256V10.0257V10.0258V10.0259V10.026V10.0261V10.0261V10.0262V10.0263V10.0264V10.0265V10.0266V10.0267V10.0268V10.0268V10.0269V10.027V10.0271V10.0272V10.0273V10.0274V10.0275V10.0275V10.0276V10.0277V10.0278V10.0279V10.028V10.0281V10.0282V10.0283V10.0283V10.0284V10.0285V10.0286V10.0287V10.0288V10.0289V10.029V10.029V10.0291V10.0292V10.0293V10.0294V10.0295V10.0296V10.0297V10.0297V10.0298V10.0299V10.03V10.0301V10.0302V10.0303V10.0304V10.0304V10.0305V10.0306V10.0307V10.0308V10.0309V10.031V10.0311V10.0312V10.0312V10.0313V10.0314V10.0315V10.0316V10.0317V10.0318V10.0319V10.0319V10.032V10.0321V10.0322V10.0323V10.0324V10.0325V10.0326V10.0326V10.0327V10.0328V10.0329V10.033V10.0331V10.0332V10.0333V10.0333V10.0334V10.0335V10.0336V10.0337V10.0338V10.0339V10.034V10.0341V10.0341V10.0342V10.0343V10.0344V10.0345V10.0346V10.0347V10.0348V10.0348V10.0349V10.035V10.0351V10.0352V10.0353V10.0354V10.0355V10.0355V10.0356V10.0357V10.0358V10.0359V10.036V10.0361V10.0362V10.0362V10.0363V10.0364V10.0365V10.0366V10.0367V10.0368V10.0369V10.037V10.037V10.0371V10.0372V10.0373V10.0374V10.0375V10.0376V10.0377V10.0377V10.0378V10.0379V10.038V10.0381V10.0382V10.0383V10.0384V10.0384V10.0385V10.0386V10.0387V10.0388V10.0389V10.039V10.0391V10.0391V10.0392V10.0393V10.0394V10.0395V10.0396V10.0397V10.0398V10.0399V10.0399V10.04V10.0401V10.0402V10.0403V10.0404V10.0405V10.0406V10.0406V10.0407V10.0408V10.0409V10.041V10.0411V10.0412V10.0413V10.0413V10.0414V10.0415V10.0416V10.0417V10.0418V10.0419V10.042V10.0421V10.0421V10.0422V10.0423V10.0424V10.0425V10.0426V10.0427V10.0428V10.0428V10.0429V10.043V10.0431V10.0432V10.0433V10.0434V10.0435V10.0435V10.0436V10.0437V10.0438V10.0439V10.044V10.0441V10.0442V10.0442V10.0443V10.0444V10.0445V10.0446V10.0447V10.0448V10.0449V10.045V10.045V10.0451V10.0452V10.0453V10.0454V10.0455V10.0456V10.0457V10.0457V10.0458V10.0459V10.046V10.0461V10.0462V10.0463V10.0464V10.0464V10.0465V10.0466V10.0467V10.0468V10.0469V10.047V10.0471V10.0471V10.0472V10.0473V10.0474V10.0475V10.0476V10.0477V10.0478V10.0479V10.0479V10.048V10.0481V10.0482V10.0483V10.0484V10.0485V10.0486V10.0486V10.0487V10.0488V10.0489V10.049V10.0491V10.0492V10.0493V10.0493V10.0494V10.0495V10.0496V10.0497V10.0498V10.0499V10.05V10.05V10.0501V10.0502V10.0503V10.0504V10.0505V10.0506V10.0507V10.0508V10.0508V10.0509V10.051V10.0511V10.0512V10.0513V10.0514V10.0515V10.0515V10.0516V10.0517V10.0518V10.0519V10.052V10.0521V10.0522V10.0522V10.0523V10.0524V10.0525V10.0526V10.0527V10.0528V10.0529V10.0529V10.053V10.0531V10.0532V10.0533V10.0534V10.0535V10.0536V10.0537V10.0537V10.0538V10.0539V10.054V10.0541V10.0542V10.0543V10.0544V10.0544V10.0545V10.0546V10.0547V10.0548V10.0549V10.055V10.0551V10.0551V10.0552V10.0553V10.0554V10.0555V10.0556V10.0557V10.0558V10.0558V10.0559V10.056V10.0561V10.0562V10.0563V10.0564V10.0565V10.0566V10.0566V10.0567V10.0568V10.0569V10.057V10.0571V10.0572V10.0573V10.0573V10.0574V10.0575V10.0576V10.0577V10.0578V10.0579V10.058V10.058V10.0581V10.0582V10.0583V10.0584V10.0585V10.0586V10.0587V10.0587V10.0588V10.0589V10.059V10.0591V10.0592V10.0593V10.0594V10.0595V10.0595V10.0596V10.0597V10.0598V10.0599V10.06V10.0601V10.0602V10.0602V10.0603V10.0604V10.0605V10.0606V10.0607V10.0608V10.0609V10.0609V10.061V10.0611V10.0612V10.0613V10.0614V10.0615V10.0616V10.0616V10.0617V10.0618V10.0619V10.062V10.0621V10.0622V10.0623V10.0624V10.0624V10.0625V10.0626V10.0627V10.0628V10.0629V10.063V10.0631V10.0631V10.0632V10.0633V10.0634V10.0635V10.0636V10.0637V10.0638V10.0638V10.0639V10.064V10.0641V10.0642V10.0643V10.0644V10.0645V10.0645V10.0646V10.0647V10.0648V10.0649V10.065V10.0651V10.0652V10.0653V10.0653V10.0654V10.0655V10.0656V10.0657V10.0658V10.0659V10.066V10.066V10.0661V10.0662V10.0663V10.0664V10.0665V10.0666V10.0667V10.0667V10.0668V10.0669V10.067V10.0671V10.0672V10.0673V10.0674V10.0674V10.0675V10.0676V10.0677V10.0678V10.0679V10.068V10.0681V10.0682V10.0682V10.0683V10.0684V10.0685V10.0686V10.0687V10.0688V10.0689V10.0689V10.069V10.0691V10.0692V10.0693V10.0694V10.0695V10.0696V10.0696V10.0697V10.0698V10.0699V10.07V10.1C19.579 10.5104 19.3945 10.9257 18.9829 11.3645C18.5722 11.8023 17.9354 12.2289 17.1178 12.596L17.1177 12.596C15.4833 13.3317 13.1633 13.815 10.584 13.815C8.00474 13.815 5.68478 13.3317 4.05034 12.596L4.05023 12.596C3.23264 12.2289 2.59586 11.8023 2.1852 11.3645C1.77595 10.9282 1.59114 10.5151 1.58905 10.107C1.59278 10.0723 1.59278 10.0375 1.58903 10.0028V7.67867C2.11158 8.15326 2.77064 8.56196 3.54273 8.90899C5.38303 9.73722 7.86133 10.225 10.584 10.225C13.3067 10.225 15.785 9.73722 17.6253 8.90899ZM17.6253 13.709C18.3974 13.362 19.0565 12.9533 19.579 12.4787V14.825V14.8251V14.8252V14.8253V14.8254V14.8254V14.8255V14.8256V14.8257V14.8258V14.8259V14.826V14.8261V14.8261V14.8262V14.8263V14.8264V14.8265V14.8266V14.8267V14.8268V14.8268V14.8269V14.827V14.8271V14.8272V14.8273V14.8274V14.8275V14.8275V14.8276V14.8277V14.8278V14.8279V14.828V14.8281V14.8282V14.8283V14.8283V14.8284V14.8285V14.8286V14.8287V14.8288V14.8289V14.829V14.829V14.8291V14.8292V14.8293V14.8294V14.8295V14.8296V14.8297V14.8297V14.8298V14.8299V14.83V14.8301V14.8302V14.8303V14.8304V14.8304V14.8305V14.8306V14.8307V14.8308V14.8309V14.831V14.8311V14.8312V14.8312V14.8313V14.8314V14.8315V14.8316V14.8317V14.8318V14.8319V14.8319V14.832V14.8321V14.8322V14.8323V14.8324V14.8325V14.8326V14.8326V14.8327V14.8328V14.8329V14.833V14.8331V14.8332V14.8333V14.8333V14.8334V14.8335V14.8336V14.8337V14.8338V14.8339V14.834V14.8341V14.8341V14.8342V14.8343V14.8344V14.8345V14.8346V14.8347V14.8348V14.8348V14.8349V14.835V14.8351V14.8352V14.8353V14.8354V14.8355V14.8355V14.8356V14.8357V14.8358V14.8359V14.836V14.8361V14.8362V14.8362V14.8363V14.8364V14.8365V14.8366V14.8367V14.8368V14.8369V14.837V14.837V14.8371V14.8372V14.8373V14.8374V14.8375V14.8376V14.8377V14.8377V14.8378V14.8379V14.838V14.8381V14.8382V14.8383V14.8384V14.8384V14.8385V14.8386V14.8387V14.8388V14.8389V14.839V14.8391V14.8391V14.8392V14.8393V14.8394V14.8395V14.8396V14.8397V14.8398V14.8399V14.8399V14.84V14.8401V14.8402V14.8403V14.8404V14.8405V14.8406V14.8406V14.8407V14.8408V14.8409V14.841V14.8411V14.8412V14.8413V14.8413V14.8414V14.8415V14.8416V14.8417V14.8418V14.8419V14.842V14.842V14.8421V14.8422V14.8423V14.8424V14.8425V14.8426V14.8427V14.8428V14.8428V14.8429V14.843V14.8431V14.8432V14.8433V14.8434V14.8435V14.8435V14.8436V14.8437V14.8438V14.8439V14.844V14.8441V14.8442V14.8442V14.8443V14.8444V14.8445V14.8446V14.8447V14.8448V14.8449V14.8449V14.845V14.8451V14.8452V14.8453V14.8454V14.8455V14.8456V14.8457V14.8457V14.8458V14.8459V14.846V14.8461V14.8462V14.8463V14.8464V14.8464V14.8465V14.8466V14.8467V14.8468V14.8469V14.847V14.8471V14.8471V14.8472V14.8473V14.8474V14.8475V14.8476V14.8477V14.8478V14.8479V14.8479V14.848V14.8481V14.8482V14.8483V14.8484V14.8485V14.8486V14.8486V14.8487V14.8488V14.8489V14.849V14.8491V14.8492V14.8493V14.8493V14.8494V14.8495V14.8496V14.8497V14.8498V14.8499V14.85V14.85V14.8501V14.8502V14.8503V14.8504V14.8505V14.8506V14.8507V14.8508V14.8508V14.8509V14.851V14.8511V14.8512V14.8513V14.8514V14.8515V14.8515V14.8516V14.8517V14.8518V14.8519V14.852V14.8521V14.8522V14.8522V14.8523V14.8524V14.8525V14.8526V14.8527V14.8528V14.8529V14.8529V14.853V14.8531V14.8532V14.8533V14.8534V14.8535V14.8536V14.8537V14.8537V14.8538V14.8539V14.854V14.8541V14.8542V14.8543V14.8544V14.8544V14.8545V14.8546V14.8547V14.8548V14.8549V14.855V14.8551V14.8551V14.8552V14.8553V14.8554V14.8555V14.8556V14.8557V14.8558V14.8558V14.8559V14.856V14.8561V14.8562V14.8563V14.8564V14.8565V14.8566V14.8566V14.8567V14.8568V14.8569V14.857V14.8571V14.8572V14.8573V14.8573V14.8574V14.8575V14.8576V14.8577V14.8578V14.8579V14.858V14.858V14.8581V14.8582V14.8583V14.8584V14.8585V14.8586V14.8587V14.8587V14.8588V14.8589V14.859V14.8591V14.8592V14.8593V14.8594V14.8595V14.8595V14.8596V14.8597V14.8598V14.8599V14.86V14.8601V14.8602V14.8602V14.8603V14.8604V14.8605V14.8606V14.8607V14.8608V14.8609V14.8609V14.861V14.8611V14.8612V14.8613V14.8614V14.8615V14.8616V14.8616V14.8617V14.8618V14.8619V14.862V14.8621V14.8622V14.8623V14.8624V14.8624V14.8625V14.8626V14.8627V14.8628V14.8629V14.863V14.8631V14.8631V14.8632V14.8633V14.8634V14.8635V14.8636V14.8637V14.8638V14.8638V14.8639V14.864V14.8641V14.8642V14.8643V14.8644V14.8645V14.8645V14.8646V14.8647V14.8648V14.8649V14.865V14.8651V14.8652V14.8653V14.8653V14.8654V14.8655V14.8656V14.8657V14.8658V14.8659V14.866V14.866V14.8661V14.8662V14.8663V14.8664V14.8665V14.8666V14.8667V14.8667V14.8668V14.8669V14.867V14.8671V14.8672V14.8673V14.8674V14.8674V14.8675V14.8676V14.8677V14.8678V14.8679V14.868V14.8681V14.8682V14.8682V14.8683V14.8684V14.8685V14.8686V14.8687V14.8688V14.8689V14.8689V14.869V14.8691V14.8692V14.8693V14.8694V14.8695V14.8696V14.8696V14.8697V14.8698V14.8699V14.87V14.9C19.579 15.3104 19.3945 15.7257 18.9829 16.1645C18.5722 16.6023 17.9354 17.0289 17.1178 17.396L17.1177 17.396C15.4833 18.1317 13.1633 18.615 10.584 18.615C8.00474 18.615 5.68478 18.1317 4.05034 17.396L4.05023 17.396C3.23264 17.0289 2.59586 16.6023 2.1852 16.1645C1.77595 15.7282 1.59114 15.3151 1.58905 14.907C1.59278 14.8723 1.59278 14.8375 1.58903 14.8028V12.4787C2.11158 12.9533 2.77064 13.362 3.54273 13.709C5.38303 14.5372 7.86133 15.025 10.584 15.025C13.3067 15.025 15.785 14.5372 17.6253 13.709ZM17.6253 18.509C18.3974 18.162 19.0565 17.7533 19.579 17.2787V19.22C19.579 19.6304 19.3945 20.0457 18.9829 20.4845C18.5722 20.9223 17.9354 21.3489 17.1178 21.716L17.1177 21.716C15.4833 22.4517 13.1633 22.935 10.584 22.935C8.00474 22.935 5.68478 22.4517 4.05034 21.716L4.05023 21.716C3.23264 21.3489 2.59586 20.9223 2.1852 20.4845C1.77361 20.0457 1.58903 19.6304 1.58903 19.22V17.2787C2.11158 17.7533 2.77064 18.162 3.54273 18.509C5.38303 19.3372 7.86133 19.825 10.584 19.825C13.3067 19.825 15.785 19.3372 17.6253 18.509ZM10.584 0.375C7.86133 0.375 5.38303 0.862782 3.54273 1.69101C2.62322 2.10432 1.85796 2.60781 1.2979 3.20445C0.736911 3.80206 0.379033 4.51934 0.379033 5.3V10.0028C0.375283 10.0376 0.375283 10.0724 0.379033 10.1072V14.8028C0.375283 14.8376 0.375283 14.8724 0.379033 14.9072V19.22C0.379033 20.0007 0.736911 20.7179 1.2979 21.3155C1.85796 21.9122 2.62322 22.4157 3.54273 22.829C5.38303 23.6572 7.86133 24.145 10.584 24.145C13.3067 24.145 15.785 23.6572 17.6253 22.829C18.5448 22.4157 19.3101 21.9122 19.8702 21.3155C20.4312 20.7179 20.789 20.0007 20.789 19.22V5.3C20.789 4.51934 20.4312 3.80206 19.8702 3.20445C19.3101 2.6078 18.5448 2.1043 17.6253 1.69099C15.785 0.862773 13.3067 0.375 10.584 0.375Z" fill="#64767D" stroke="#64767D" stroke-width="0.25"/>
<rect x="12.2512" y="21.25" width="26.4974" height="19.498" rx="3.25" fill="white" stroke="#64767D" stroke-width="1.5"/>
<rect x="15.2512" y="18.25" width="26.4974" height="19.498" rx="3.25" fill="white" stroke="#64767D" stroke-width="1.5"/>
<rect x="18.2512" y="15.25" width="26.4974" height="19.498" rx="3.25" fill="white" stroke="#64767D" stroke-width="1.5"/>
<path d="M38.0012 23.25H26.0012V23H38.0012V23.25ZM38.0012 27H26.0012V26.75H38.0012V27Z" fill="#64767D" stroke="#64767D"/>
<path d="M30.2061 12.1416L30.4973 12.1141L30.6161 11.8468L32.0011 8.73123L33.3863 11.8491L33.5051 12.1166L33.7966 12.1439L37.2478 12.4669L34.6078 14.6422L34.3599 14.8465L34.4426 15.1568L35.3217 18.4575L32.2531 16.6681L31.9979 16.5193L31.7444 16.671L28.7269 18.4773L29.4567 15.1348L29.5207 14.8415L29.292 14.6471L26.7285 12.4688L30.2061 12.1416Z" fill="#64767D" stroke="#64767D"/>
</svg>
